<svg xmlns="http://www.w3.org/2000/svg" xmlns:xlink="http://www.w3.org/1999/xlink" viewBox="0 0 304 348"><defs><style>.cls-1{fill:none;}.cls-2{clip-path:url(#clip-path);}.cls-3{fill:#fff;stroke:#fff;stroke-miterlimit:10;}</style><clipPath id="clip-path" transform="translate(7.74 8.46)"><path class="cls-1" d="M186.53,290.65C175.08,306.88,139,345.13,82.69,322.32a14.85,14.85,0,0,1-9.22-13c-1.2-24,5.86-86.13,109.81-92.33A18,18,0,0,0,195,211.51c27.7-28.06,66.62-25.78,90.87-3.87,9.43,8.53,4.39,24.3-8.24,25.71C253.48,236.05,216.72,247.88,186.53,290.65ZM185.76,167c9-62,13-59,9-103-3.12-24.43-9.58-81.18-32-59-5.08,6.64-8.08,14.07-10,28-4,29,7.25,20.61,2,67-1.78,15.7-4.69,27-8.33,35.69C148,159.38,137.89,193.09,131,213a19.18,19.18,0,0,1-16.78,12.71c-11.74,1.07-21.1-4.82-23.13-16.15-2,9.23-10.91,15.41-20.36,15-12.57,0-20.22-7.87-21-21.59-1.47-25.72-.35-49.16,3.41-71.52C46.18,112.19,57.5,79.58,67.76,59c8.11-13.9,9-43-6-53C26.89-7.65-63.9,318.44,73.64,322.5c-13.2-17.93-2.53-52.33,13.94-72.42a.25.25,0,0,0,0,.07c16.13-18.6,36.35-27.78,62.25-33.63,0,0,0-.08,0-.12,10.89-2.73,23.74-3.22,36.19-5C183.46,203.33,182.46,189.75,185.76,167ZM85.52,210.17a14.15,14.15,0,0,1-12,9.8c-8,.9-18.23-1.1-19.12-16.69-1.33-23.25-.78-48,4-74.23A22.8,22.8,0,0,1,74,111.54c7.49-2.38,16.26-1.32,21.37,12.46C103.45,145.94,91,192.23,85.52,210.17Zm53.76-83.93C134.74,112.29,126,110.91,118.44,113a22.94,22.94,0,0,0-16.28,16.92c-5.88,26-7.45,50.76-7.08,74,.24,15.61,10.36,18,18.41,17.37A14.25,14.25,0,0,0,125.93,212C132.09,194.26,146.5,148.47,139.28,126.24Z"/></clipPath></defs><title>Recurso 5</title><g id="Capa_2" data-name="Capa 2"><g id="Capa_3" data-name="Capa 3"><g class="cls-2"><rect class="cls-3" x="0.5" y="0.5" width="303" height="347"/></g></g></g></svg>